<svg xmlns="http://www.w3.org/2000/svg" viewBox="0 0 1280 330.66"><defs><style>.a{fill:#e4e4e4;}</style></defs><path class="a" d="M119.82,88.63A164.22,164.22,0,0,0,8.08,132.39,165.44,165.44,0,0,0,4,169c0,2.38.06,4.75.16,7.11.17-.21.34-.42.41-.49v0a165.72,165.72,0,0,1,136.6-72c3.1,0,6.19.09,9.25.26,0,0,0,0,0,.06l.1,0a25,25,0,0,0,24.13,31.47,25,25,0,0,0,24.6-20.63h0a3.81,3.81,0,0,0,.07-.59,164.17,164.17,0,0,1,25.27,12.06C198,101,159.57,88.63,119.82,88.63Zm67.93,22.66h0a13.15,13.15,0,1,1-25.45-5.36h-.06a4.45,4.45,0,0,0,.32-.86,164.84,164.84,0,0,1,25.26,5.31c0,.09,0,.18,0,.26A4.78,4.78,0,0,0,187.75,111.29Z" transform="translate(-4 -3.67)"/><path class="a" d="M169.33,3.67A165.39,165.39,0,0,0,9,128.59c.24-.31.49-.61.72-.92l0,.06A167.07,167.07,0,0,1,79.37,65.57l0-.06A12.68,12.68,0,0,0,64.6,59.26a165.39,165.39,0,0,1,156.83,5.21s0,0,0,0A38.66,38.66,0,0,1,241,93.68h0a37.77,37.77,0,0,0,18,27.57h0a102.81,102.81,0,0,1,25.47,20.52l0,0a38.44,38.44,0,0,1,10.13,26c0,.49,0,1,0,1.47h0l-.06.67c0,.12,0,.23,0,.35h0a101.65,101.65,0,0,1-11.76,39.14l-.59,1a12.62,12.62,0,0,0-.8-10.88,12.27,12.27,0,0,0-3.72-4.57,101,101,0,0,0-84.1-15.07h0A165.45,165.45,0,0,0,73.25,303.1c0,.11,0,.26-.07.41a164.47,164.47,0,0,0,19.07,11.78c0-.17,0-.33.06-.53h0a165.67,165.67,0,0,1,58.87-112.11,2.31,2.31,0,0,1,.53-.44s.24.13-.6.9c-16,17.93-25.08,41.74-25.08,67.62a100.79,100.79,0,0,0,21,61.72l.38.43a166,166,0,0,0,21.87,1.44c.91,0,1.81,0,2.71,0-.1-.14-.2-.28-.3-.45h0a101.6,101.6,0,0,1-21.52-54.93s.32-.09,0,0c3.52,25.39,25.18,45.5,47,52.69.32.09.53.17.73.24A165.34,165.34,0,0,0,169.33,3.67Z" transform="translate(-4 -3.67)"/><path class="a" d="M470.63,146.17H547l16.84-72.93h44.22L563.86,264.76H519.64L538.4,183.5H462l-18.77,81.26H399L443.25,73.24h44.22Z" transform="translate(-4 -3.67)"/><path class="a" d="M726.69,228.58H654.32l-23,36.18h-46L706.84,73.24h40.49l31.3,191.52H732.69Zm-4.24-33.88-8.7-64.32L675.07,194.7Z" transform="translate(-4 -3.67)"/><path class="a" d="M858.74,73.24l11.47,126.92L940.29,73.24h30.44L982.2,200.16l70.08-126.92h45.94L988.82,264.76H951.49L938.14,148.47l-67,116.29H833.76l-21-191.52Z" transform="translate(-4 -3.67)"/><path class="a" d="M1146.12,153.06,1230,73.24h54L1185.52,164l60.29,100.79H1189l-49-85-19.62,85h-44.22l44.22-191.52h44.22Z" transform="translate(-4 -3.67)"/></svg>